<svg version="1.1" xmlns="http://www.w3.org/2000/svg" xmlns:xlink="http://www.w3.org/1999/xlink" width="206.41153" height="206.41153" viewBox="0,0,206.41153,206.41153"><g transform="translate(-216.97625,-76.61221)"><g data-paper-data="{&quot;isPaintingLayer&quot;:true}" fill="#c1c1c1" fill-rule="nonzero" stroke="#000000" stroke-width="0" stroke-linecap="butt" stroke-linejoin="miter" stroke-miterlimit="10" stroke-dasharray="" stroke-dashoffset="0" style="mix-blend-mode: normal"><path d="M304.34621,267.36996c0,-8.64535 7.00844,-15.65378 15.65379,-15.65378c8.64535,0 15.65379,7.00844 15.65379,15.65379c0,8.64535 -7.00844,15.65378 -15.65379,15.65378c-8.64535,0 -15.65379,-7.00844 -15.65379,-15.65378z"/><path d="M216.97625,180c0,-8.64534 7.00844,-15.65378 15.65379,-15.65378c8.64535,0 15.65379,7.00844 15.65379,15.65379c0,8.64534 -7.00844,15.65379 -15.65378,15.65379c-8.64535,0 -15.65379,-7.00844 -15.65379,-15.65378z"/><path d="M392.08022,180c0,-8.64534 7.00844,-15.65378 15.65379,-15.65378c8.64535,0 15.65379,7.00844 15.65379,15.65379c0,8.64534 -7.00844,15.65379 -15.65379,15.65379c-8.64535,0 -15.65379,-7.00844 -15.65379,-15.65378z"/><path d="M304.34621,92.266c0,-8.64535 7.00844,-15.65378 15.65379,-15.65378c8.64535,0 15.65379,7.00844 15.65379,15.65379c0,8.64535 -7.00844,15.65379 -15.65379,15.65379c-8.64535,0 -15.65379,-7.00844 -15.65379,-15.65378z"/></g></g></svg>