<svg version="1.1" xmlns="http://www.w3.org/2000/svg" xmlns:xlink="http://www.w3.org/1999/xlink" width="696" height="389" viewBox="0,0,696,389"><g transform="translate(28,14.5)"><g data-paper-data="{&quot;isPaintingLayer&quot;:true}" fill-rule="nonzero" stroke="none" stroke-linecap="butt" stroke-linejoin="miter" stroke-miterlimit="10" stroke-dasharray="" stroke-dashoffset="0" style="mix-blend-mode: normal"><path d="M-24,374.5c-2.20914,0 -4,-1.79086 -4,-4v-381c0,-2.20914 1.79086,-4 4,-4h688c2.20914,0 4,1.79086 4,4v381c0,2.20914 -1.79086,4 -4,4z" fill="#000000" stroke-width="0"/><path d="M449.5,266c-2.20914,0 -4,-1.79086 -4,-4v-164c0,-2.20914 1.79086,-4 4,-4h141c2.20914,0 4,1.79086 4,4v164c0,2.20914 -1.79086,4 -4,4z" fill="#747474" stroke-width="0"/><path d="M49.5,266c-2.20914,0 -4,-1.79086 -4,-4v-164c0,-2.20914 1.79086,-4 4,-4h141c2.20914,0 4,1.79086 4,4v164c0,2.20914 -1.79086,4 -4,4z" fill="#747474" stroke-width="0"/><g fill="#ffffff" stroke-width="1" font-family="Sans Serif" font-weight="normal" font-size="40" text-anchor="start"><text transform="translate(100.9955,115.997) scale(0.5,0.5)" font-size="40" xml:space="preserve" fill="#ffffff" fill-rule="nonzero" stroke="none" stroke-width="1" stroke-linecap="butt" stroke-linejoin="miter" stroke-miterlimit="10" stroke-dasharray="" stroke-dashoffset="0" font-family="Sans Serif" font-weight="normal" text-anchor="start" style="mix-blend-mode: normal"><tspan x="0" dy="0">Speed</tspan></text><text transform="translate(465.0045,116.53546) scale(0.5,0.5)" font-size="40" xml:space="preserve" fill="#ffffff" fill-rule="nonzero" stroke="none" stroke-width="1" stroke-linecap="butt" stroke-linejoin="miter" stroke-miterlimit="10" stroke-dasharray="" stroke-dashoffset="0" font-family="Sans Serif" font-weight="normal" text-anchor="start" style="mix-blend-mode: normal"><tspan x="0" dy="0">Handling</tspan></text></g></g></g></svg>