<svg version="1.1" xmlns="http://www.w3.org/2000/svg" xmlns:xlink="http://www.w3.org/1999/xlink" width="101.44051" height="42.02549" viewBox="0,0,101.44051,42.02549"><defs><linearGradient x1="129.05161" y1="265.51776" x2="129.05161" y2="272.38019" gradientUnits="userSpaceOnUse" id="color-1"><stop offset="0" stop-color="#747474"/><stop offset="1" stop-color="#747474" stop-opacity="0"/></linearGradient><radialGradient cx="80.37123" cy="265.77423" r="3.7647" gradientUnits="userSpaceOnUse" id="color-2"><stop offset="0" stop-color="#747474"/><stop offset="1" stop-color="#747474" stop-opacity="0"/></radialGradient><linearGradient x1="177.19164" y1="264.7375" x2="177.90027" y2="267.25203" gradientUnits="userSpaceOnUse" id="color-3"><stop offset="0" stop-color="#737373"/><stop offset="1" stop-color="#737373" stop-opacity="0"/></linearGradient></defs><g transform="translate(-76.60653,-258.97451)"><g data-paper-data="{&quot;isPaintingLayer&quot;:true}" fill-rule="nonzero" stroke="none" stroke-linecap="butt" stroke-linejoin="miter" stroke-miterlimit="10" stroke-dasharray="" stroke-dashoffset="0" style="mix-blend-mode: normal"><path d="M83.48462,301c-1.64836,0 -2.98462,-1.79086 -2.98462,-4v-34c0,-2.20914 1.33626,-4 2.98462,-4h91.03077c1.64836,0 2.98462,1.79086 2.98462,4v34c0,2.20914 -1.33626,4 -2.98462,4z" fill="#a00000" stroke-width="0"/><text transform="translate(110.40122,285.8517) scale(0.5088,0.5088)" font-size="40" xml:space="preserve" fill="#ffffff" fill-rule="nonzero" stroke="none" stroke-width="1" stroke-linecap="butt" stroke-linejoin="miter" stroke-miterlimit="10" stroke-dasharray="" stroke-dashoffset="0" font-family="Sans Serif" font-weight="normal" text-anchor="start" style="mix-blend-mode: normal"><tspan x="0" dy="0">Buy</tspan></text><path d="M77.34399,265.83694v-6.86244h100.7022v6.86244z" fill="#747474" stroke-width="0"/><path d="M80.53582,272.38019v-6.86244h97.0316v6.86244z" fill="url(#color-1)" stroke-width="0"/><path d="M76.60653,265.77423c0,-0.84692 4.01,0.07866 4.01,0.07866c0,0 0.53228,3.68604 -0.2453,3.68604c-2.07919,0 -3.7647,-1.68551 -3.7647,-3.7647z" fill="url(#color-2)" stroke-width="0"/><path d="M177.19164,267.25203c-0.19568,-0.69437 -0.19568,-1.82016 0,-2.51452c0.19568,-0.69437 0.51295,-0.69437 0.70863,0c0.19568,0.69437 0.19568,1.82016 0,2.51452c-0.19568,0.69437 -0.51295,0.69437 -0.70863,0z" fill="url(#color-3)" stroke-width="0"/></g></g></svg>